<svg id="visual" viewBox="0 0 960 540" width="960" height="540" xmlns="http://www.w3.org/2000/svg" xmlns:xlink="http://www.w3.org/1999/xlink" version="1.1"><path d="M0 422L16 423.7C32 425.3 64 428.7 96 424.7C128 420.7 160 409.3 192 401C224 392.7 256 387.3 288 388.8C320 390.3 352 398.7 384 408.8C416 419 448 431 480 442.8C512 454.7 544 466.3 576 453.5C608 440.7 640 403.3 672 402C704 400.7 736 435.3 768 446.3C800 457.3 832 444.7 864 426.7C896 408.7 928 385.3 944 373.7L960 362L960 541L944 541C928 541 896 541 864 541C832 541 800 541 768 541C736 541 704 541 672 541C640 541 608 541 576 541C544 541 512 541 480 541C448 541 416 541 384 541C352 541 320 541 288 541C256 541 224 541 192 541C160 541 128 541 96 541C64 541 32 541 16 541L0 541Z" fill="#0066FF" stroke-linecap="round" stroke-linejoin="miter"></path></svg>